<svg width="66" height="66" viewBox="0 0 66 66" fill="none" xmlns="http://www.w3.org/2000/svg">
<g clip-path="url(#clip0_801_2226)">
<path d="M33 65.8125C51.2254 65.8125 66 51.1218 66 33C66 14.8782 51.2254 0.1875 33 0.1875C14.7746 0.1875 0 14.8782 0 33C0 51.1218 14.7746 65.8125 33 65.8125Z" fill="#E40606"/>
<path d="M44 15.5C40.7 15.5 37.84 17.3594 36.3 19.9844C34.76 17.25 31.9 15.5 28.6 15.5C23.76 15.5 19.8 19.4375 19.8 24.25C19.8 29.0625 23.76 33 28.6 33C31.9 33 34.76 31.1406 36.3 28.5156C37.84 31.25 40.7 33 44 33C48.84 33 52.8 29.0625 52.8 24.25C52.8 19.4375 48.84 15.5 44 15.5ZM28.6 27.5312C26.73 27.5312 25.3 26.1094 25.3 24.25C25.3 22.3906 26.73 20.9688 28.6 20.9688C30.47 20.9688 31.9 22.3906 31.9 24.25C31.9 26.1094 30.47 27.5312 28.6 27.5312ZM44 27.5312C42.13 27.5312 40.7 26.1094 40.7 24.25C40.7 22.3906 42.13 20.9688 44 20.9688C45.87 20.9688 47.3 22.3906 47.3 24.25C47.3 26.1094 45.87 27.5312 44 27.5312ZM48.4 33H23.1C21.89 33 20.9 33.9844 20.9 35.1875V35.7344L15.4 33V50.5L20.9 47.7656V48.3125C20.9 49.5156 21.89 50.5 23.1 50.5H48.4C49.61 50.5 50.6 49.5156 50.6 48.3125V35.1875C50.6 33.9844 49.61 33 48.4 33Z" fill="white"/>
</g>
<defs>
<clipPath id="clip0_801_2226">
<rect width="66" height="66" fill="white"/>
</clipPath>
</defs>
</svg>
